PathFileType	4	(X/Y/Z)	C:\Users\Gabre\Documents\2-Sophmore\Autumn\ME 191\Nick_10292018\Nick_10292018\Upper Extremity\static_upper.trc																																																																			
DataRate	CameraRate	NumFrames	NumMarkers	Units	OrigDataRate	OrigDataStartFrame	OrigNumFrames																																																															
100	100	16	23	mm	100	32	253																																																															
Frame#	Time	Back_IMU_O			Back_IMU_D			Back_IMU_X			Back_IMU_Y			c7			aa			L.Acromion			ij			EpL			EpM			R.Radius			R.Ulna			R.Hand			Humerus_IMU_O			Humerus_IMU_D			Humerus_IMU_X			Humerus_IMU_Y			Forearm_IMU_O			Forearm_IMU_D			Forearm_IMU_X			Forearm_IMU_Y			Hand_IMU_O			Scapula_IMU_O		
		X1	Y1	Z1	X2	Y2	Z2	X3	Y3	Z3	X4	Y4	Z4	X5	Y5	Z5	X6	Y6	Z6	X7	Y7	Z7	X8	Y8	Z8	X9	Y9	Z9	X10	Y10	Z10	X11	Y11	Z11	X12	Y12	Z12	X13	Y13	Z13	X14	Y14	Z14	X15	Y15	Z15	X16	Y16	Z16	X17	Y17	Z17	X18	Y18	Z18	X19	Y19	Z19	X20	Y20	Z20	X21	Y21	Z21	X22	Y22	Z22	X23	Y23	Z23
																																																																						
32	0.31	-583.43164	503.29245	1010.83069	-608.76318	573.31927	899.94	-592.99402	588.15033	1000.59607	-599.24316	489.8222	910.04858	-577.92584	548.89575	1024.70911	-455.24646	406.2298	1007.92163	-503.01511	731.21863	977.67914	-405.50073	571.47278	984.35944	-153.22227	312.91345	954.31384	-153.53804	345.50214	885.5545	110.78895	395.78256	1008.39252	101.13856	335.30725	1023.86328	222.70512	389.49695	1017.37006	-337.66992	366.17474	1026.55652	-298.23511	293.30191	928.37994	-363.39087	296.13416	944.83191	-274.16776	361.25262	1008.87482	33.62794	404.05695	1012.16669	79.09634	305.27823	1022.0816	32.58495	304.93954	1016.05292	80.06259	403.23807	1018.87665	176.26624	372.2449	1036.96973	-483.58517	368.84964	1010.52393
33	0.32	-583.34723	503.22025	1010.81201	-608.9173	573.34778	900.00549	-592.99042	588.18427	1000.61072	-599.23627	489.82205	910.04437	-578.05078	548.82983	1024.78857	-455.12909	406.246	1007.8985	-502.98016	731.26099	977.64099	-405.54965	571.49658	984.35065	-153.22227	312.91345	954.31384	-153.64616	345.62515	885.43127	110.76575	395.80777	1008.56635	101.0647	335.34384	1024.00977	222.6658	389.49918	1017.69989	-337.85071	366.13943	1026.58069	-298.1875	293.30615	928.36554	-363.23691	296.1048	944.76422	-274.2316	361.32437	1008.89539	33.5989	404.01208	1012.28516	79.0767	305.3606	1022.14392	32.59272	305.01294	1016.16418	79.99075	403.21942	1019.02106	176.18372	372.30066	1037.18506	-483.54312	368.87646	1010.46387
34	0.33	-583.42029	503.28333	1010.86884	-608.91675	573.34778	899.99731	-592.95398	588.09241	1000.60089	-599.24225	489.82199	910.02679	-577.96997	548.79236	1024.78625	-455.25165	406.11685	1007.9082	-503.112	731.24347	977.7113	-405.52402	571.45447	984.25397	-153.26292	312.92029	954.33923	-153.62718	345.58011	885.5304	110.73013	395.86099	1008.72437	101.0323	335.37195	1024.1709	222.60223	389.5267	1017.96948	-337.90369	365.95386	1026.59839	-298.1875	293.30615	928.36554	-363.33252	296.10071	944.78534	-274.17294	361.23038	1008.94641	33.43832	404.08102	1012.4198	79.08944	305.39374	1022.15833	32.57053	304.99457	1016.24884	79.97599	403.36255	1019.09729	176.13884	372.38211	1037.3905	-483.68011	368.76077	1010.56506
35	0.34	-583.39838	503.24466	1010.9024	-608.86859	573.29742	899.95593	-593.05737	588.10907	1000.68634	-599.29596	489.8049	910.06671	-578.05457	548.80481	1024.84448	-455.25201	406.1662	1007.96136	-503.1351	731.11139	977.66333	-405.44553	571.34387	984.21313	-153.24925	312.93744	954.38586	-153.71249	345.74313	885.39044	110.72511	395.90228	1008.80841	101.0356	335.40207	1024.26563	222.48253	389.68658	1018.18237	-338.05154	365.88306	1026.73535	-298.15494	293.35364	928.33765	-363.24741	296.13425	944.74384	-274.16965	361.14999	1009.01105	33.41389	404.12119	1012.54999	79.05765	305.51523	1022.28625	32.62119	305.00146	1016.36377	79.84351	403.4585	1019.25745	176.13721	372.34235	1037.58484	-483.65948	368.78198	1010.56812
36	0.35	-583.40247	503.24445	1010.87616	-608.92261	573.24408	899.97308	-593.16766	588.1347	1000.71893	-599.2912	489.80457	910.03937	-578.04895	548.80511	1024.81909	-455.35117	406.13028	1008.03186	-503.16595	731.24231	977.72192	-405.4006	571.29004	984.22705	-153.22884	312.90607	954.38721	-154.03741	346.0755	885.25836	110.61097	396.06851	1008.95862	100.98331	335.4682	1024.35266	222.37784	389.7861	1018.39069	-337.89462	365.91052	1026.78149	-298.12033	293.30029	928.3717	-363.24741	296.13425	944.74384	-274.14142	361.07428	1009.03772	33.42429	404.18417	1012.66895	79.02324	305.47205	1022.38843	32.62619	305.10657	1016.46783	79.84953	403.64661	1019.38519	176.01289	372.40933	1037.73328	-483.60031	368.7988	1010.56909
37	0.36	-583.40619	503.17953	1010.84576	-609.01495	573.23224	899.96472	-593.08038	588.05359	1000.65393	-599.38385	489.78412	910.05847	-578.04211	548.80548	1024.78784	-455.33801	406.10565	1008.01288	-503.19778	731.20874	977.69122	-405.48901	571.45428	984.04785	-153.20692	312.9418	954.56848	-154.12093	346.26028	885.17505	110.48263	396.23428	1009.04877	101.03211	335.51047	1024.48535	222.29506	389.94363	1018.53833	-338.03653	365.81094	1026.8938	-298.2157	293.38458	928.40051	-363.24741	296.13425	944.74384	-274.15414	361.07104	1009.11377	33.35721	404.17841	1012.80359	78.96552	305.57513	1022.49658	32.47668	305.26779	1016.59399	79.74062	403.78751	1019.63293	175.9866	372.52087	1037.95557	-483.76001	368.8175	1010.60358
38	0.37	-583.42297	503.15884	1010.79474	-608.98517	573.12079	899.92303	-593.20874	588.13629	1000.63141	-599.37701	489.78372	910.02997	-578.11511	548.84082	1024.78003	-455.27225	406.15308	1008.03607	-503.2489	731.19531	977.6673	-405.48154	571.39978	984.10028	-153.17603	312.9473	954.60699	-154.19759	346.40308	885.14142	110.5583	396.38147	1009.11627	100.9408	335.578	1024.6051	222.26698	390.04108	1018.61658	-338.03653	365.81094	1026.8938	-298.2518	293.39709	928.41882	-363.33289	296.14005	944.78119	-274.22003	361.11548	1009.1601	33.36395	404.27271	1012.95117	78.90212	305.67859	1022.60461	32.43905	305.28125	1016.6225	79.72507	403.77469	1019.67493	175.96298	372.60489	1037.99976	-483.70389	368.78769	1010.5647
39	0.38	-583.42017	503.1586	1010.77716	-609.04041	573.17108	899.92572	-593.25195	588.10883	1000.59802	-599.40704	489.69659	909.99701	-578.16632	548.81744	1024.78284	-455.49594	406.21289	1008.03223	-503.21066	731.18713	977.58704	-405.52008	571.5603	984.11304	-153.19916	313.00861	954.6734	-154.198	346.42084	885.12555	110.51992	396.52133	1009.2019	100.96632	335.69525	1024.70007	222.19925	390.13629	1018.68549	-338.1644	365.9303	1026.89783	-298.2518	293.39709	928.41882	-363.51334	296.20508	944.888	-274.21609	361.21619	1009.17322	33.30029	404.3732	1013.0321	78.95876	305.80078	1022.67291	32.51275	305.4422	1016.71301	79.59288	403.97913	1019.66895	175.92352	372.79407	1038.13953	-483.6091	368.76248	1010.60913
40	0.39	-583.54395	503.15671	1010.75586	-609.10547	573.19153	899.89215	-593.32281	587.94818	1000.51099	-599.41931	489.6969	910.00635	-578.14923	548.82172	1024.6969	-455.36819	406.21072	1007.94141	-503.47183	731.14856	977.64063	-405.65259	571.62042	984.08594	-153.18399	313.03067	954.68622	-154.25566	346.44629	885.15826	110.46599	396.60223	1009.24023	100.91151	335.86783	1024.81482	222.14525	390.31964	1018.75116	-338.12524	365.96304	1026.92432	-298.16348	293.33646	928.57849	-363.44409	296.18109	944.8576	-274.3132	361.32315	1009.19098	33.20425	404.50958	1013.00476	78.98496	306.05609	1022.70563	32.5259	305.591	1016.75104	79.5625	404.10968	1019.74762	175.94162	372.99057	1038.18811	-483.62915	368.76434	1010.59784
41	0.4	-583.57257	503.19516	1010.7088	-609.08569	573.16034	899.92682	-593.34607	587.94824	1000.53149	-599.37805	489.61246	909.93451	-578.32697	548.75391	1024.62915	-455.36819	406.21072	1007.94141	-503.63904	731.14893	977.61475	-405.75293	571.55164	984.12372	-153.20482	313.11847	954.77002	-154.29114	346.51868	885.29901	110.36136	396.77682	1009.35132	100.84476	335.98557	1024.88721	222.14539	390.50595	1018.85864	-338.2149	366.10043	1026.90808	-298.25854	293.35818	928.6073	-363.43301	296.16446	945.02344	-274.36591	361.46686	1009.19495	33.1451	404.52417	1013.0448	78.85197	306.1059	1022.87756	32.55753	305.6232	1016.86139	79.57479	404.19485	1019.76215	175.90981	373.12958	1038.21106	-483.62988	368.79199	1010.63708
42	0.41	-583.66205	503.13184	1010.71857	-609.12323	573.14063	899.92645	-593.38391	587.94836	1000.58362	-599.41644	489.61356	909.97736	-578.34497	548.7514	1024.66016	-455.47498	406.22208	1007.90973	-503.68277	731.22089	977.48639	-405.87784	571.72345	984.10541	-153.1954	313.14044	954.78546	-154.07866	346.60361	885.4259	110.38364	396.86215	1009.41248	100.85294	336.11887	1024.95313	222.08295	390.71802	1018.96588	-338.28448	366.21454	1026.90955	-298.28876	293.4249	928.65692	-363.29736	296.14038	945.05328	-274.4574	361.57483	1009.27649	33.11069	404.68915	1013.15582	78.73096	306.33194	1022.93274	32.46928	305.86655	1016.81763	79.44643	404.35916	1019.90289	175.82661	373.33179	1038.30139	-483.66718	368.77283	1010.58636
43	0.42	-583.72394	503.15674	1010.74493	-609.18896	573.17139	899.95123	-593.37531	587.96729	1000.57568	-599.35974	489.59579	909.91968	-578.43951	548.71906	1024.69495	-455.56546	406.23914	1008.0174	-503.79208	731.13104	977.48517	-405.84116	571.61249	984.07642	-153.20053	313.15683	954.80109	-153.92358	346.36462	885.69427	110.35265	397.02411	1009.49597	100.74015	336.29636	1025.04443	222.01201	390.7926	1019.07001	-338.30014	366.2605	1026.91931	-298.29886	293.44205	928.6604	-363.4462	296.1575	945.09161	-274.38235	361.66116	1009.29639	33.04033	404.87247	1013.21838	78.6938	306.4429	1022.98907	32.48849	305.85522	1016.88708	79.39023	404.41177	1019.87115	175.79831	373.44217	1038.42322	-483.76001	368.8175	1010.60358
44	0.43	-583.70911	503.13336	1010.79785	-609.24164	573.08093	899.91547	-593.51978	587.966	1000.62567	-599.52875	489.55951	910.07074	-578.48383	548.71051	1024.71069	-455.56653	406.26251	1007.93286	-503.97229	731.23071	977.48267	-406.10263	571.72662	984.02106	-153.22404	313.29324	954.79077	-153.78168	346.14484	885.88104	110.32239	397.09973	1009.51086	100.77467	336.51749	1025.09143	222.04425	390.98862	1019.21191	-338.30014	366.2605	1026.91931	-298.25995	293.47052	928.65515	-363.45209	296.18488	945.07422	-274.39212	361.67285	1009.29852	33.03172	405.0036	1013.39532	78.70322	306.57986	1023.05414	32.44923	306.04095	1017.0332	79.34734	404.54642	1019.93188	175.77267	373.58331	1038.54309	-483.63943	368.77707	1010.60303
45	0.44	-583.75586	503.13449	1010.84058	-609.31653	573.06873	899.93243	-593.60278	587.94604	1000.71991	-599.65997	489.54761	910.13623	-578.51361	548.70258	1024.71631	-455.58612	406.26352	1007.99115	-504.1651	731.18085	977.3985	-406.03165	571.76886	984.05432	-153.36522	313.5639	954.78766	-153.65572	346.32797	885.99646	110.30031	397.25525	1009.56799	100.72508	336.58682	1025.15845	221.99071	391.12216	1019.31628	-338.28537	366.25171	1026.90698	-298.29733	293.5639	928.67511	-363.46954	296.2724	945.08569	-274.46423	361.78857	1009.35052	32.99263	405.07367	1013.37769	78.59943	306.72333	1022.98767	32.43875	306.17371	1017.15796	79.35049	404.82605	1020.2113	175.69847	373.74747	1038.64355	-483.84875	368.78134	1010.61639
46	0.45	-583.8186	503.15936	1010.86469	-609.34686	573.06891	899.97754	-593.65674	587.95032	1000.72992	-599.72742	489.58417	910.21558	-578.54346	548.72888	1024.75427	-455.58801	406.27448	1007.99988	-504.29294	731.21112	977.38818	-406.13919	571.5824	984.16272	-153.41373	313.65594	954.901	-153.59229	346.21985	886.08875	110.34988	397.4462	1009.72424	100.71413	336.75174	1025.22119	221.95735	391.26114	1019.3902	-338.30014	366.2605	1026.91931	-298.40393	293.58493	928.65552	-363.43805	296.27258	945.05963	-274.46423	361.78857	1009.35052	32.88115	405.26352	1013.42957	78.65688	306.85696	1023.07025	32.48686	306.22546	1017.16681	79.28165	405.0036	1020.23431	175.64044	373.84586	1038.75769	-483.89264	368.85168	1010.63342
47	0.46	-583.89514	503.11511	1010.95972	-609.41907	572.95483	899.97058	-593.97339	587.80365	1000.76947	-599.72217	489.54926	910.1958	-578.60382	548.71008	1024.78943	-455.60782	406.36502	1008.00525	-504.52609	731.23322	977.43945	-406.17151	571.65387	984.05798	-153.4646	313.77893	954.86688	-153.56836	346.25049	886.14362	110.30911	397.54944	1009.75146	100.66662	336.81775	1025.24683	221.87727	391.52789	1019.52734	-338.3291	366.27188	1026.9093	-298.46579	293.67542	928.59906	-363.58124	296.33069	945.11499	-274.49173	361.80267	1009.33411	32.86645	405.40179	1013.51001	78.639	306.96686	1023.11871	32.40887	306.35294	1017.17273	79.21915	405.05969	1020.10632	175.59454	374.02567	1038.79492	-483.88153	368.84531	1010.62073
